<?xml version="1.0" standalone="no"?>
<!DOCTYPE svg PUBLIC "-//W3C//DTD SVG 20010904//EN"
 "http://www.w3.org/TR/2001/REC-SVG-20010904/DTD/svg10.dtd">
<svg version="1.0" xmlns="http://www.w3.org/2000/svg"
 width="1772.000000pt" height="1772.000000pt" viewBox="0 0 1772.000000 1772.000000"
 preserveAspectRatio="xMidYMid meet">
<metadata>
Created by potrace 1.16, written by Peter Selinger 2001-2019
</metadata>
<g transform="translate(0.000000,1772.000000) scale(0.100000,-0.100000)"
fill="#000000" stroke="none">
<path d="M8540 16474 c-30 -2 -131 -8 -225 -14 -1040 -68 -2102 -371 -3027
-864 -1385 -739 -2522 -1897 -3228 -3291 -461 -910 -717 -1837 -802 -2900 -16
-209 -16 -881 0 -1090 54 -682 175 -1285 379 -1895 444 -1325 1267 -2519 2368
-3435 460 -383 1002 -732 1540 -991 870 -419 1761 -656 2770 -736 209 -16 881
-16 1090 0 1063 85 1990 341 2900 802 547 277 1025 596 1511 1010 204 173 661
630 834 834 414 486 733 964 1010 1511 461 910 717 1835 802 2900 17 209 17
881 0 1090 -86 1082 -357 2046 -832 2961 -707 1363 -1837 2504 -3198 3230
-908 483 -1890 769 -2959 860 -165 14 -807 26 -933 18z m716 -314 c1660 -96
3165 -707 4409 -1789 163 -142 490 -465 643 -636 1207 -1347 1862 -3062 1862
-4875 0 -1813 -655 -3528 -1862 -4875 -153 -171 -480 -494 -643 -636 -1344
-1170 -3025 -1799 -4805 -1799 -1780 0 -3461 629 -4805 1799 -163 142 -490
465 -643 636 -1207 1347 -1862 3062 -1862 4875 0 1780 629 3461 1799 4805 142
163 465 490 636 643 1238 1109 2785 1753 4450 1851 207 12 618 12 821 1z"/>
<path d="M8420 15759 c-699 -46 -1418 -205 -2059 -455 -752 -294 -1456 -723
-2061 -1254 -262 -229 -613 -597 -835 -875 -1148 -1434 -1676 -3252 -1474
-5080 142 -1293 655 -2527 1474 -3550 302 -377 702 -778 1080 -1080 1114 -893
2464 -1414 3895 -1505 212 -13 628 -13 840 0 1431 91 2781 612 3895 1505 378
302 778 703 1080 1080 1148 1434 1676 3252 1474 5080 -156 1417 -757 2762
-1711 3830 -145 163 -447 463 -598 595 -1157 1016 -2602 1612 -4140 1710 -188
11 -674 11 -860 -1z m232 -589 c43 -12 74 -47 87 -99 7 -27 118 -1020 134
-1201 5 -57 -168 -116 -315 -107 -114 7 -148 30 -226 147 -103 155 -319 504
-364 587 -23 42 -44 71 -46 64 -2 -6 1 -41 8 -78 14 -83 90 -756 85 -761 -12
-12 -124 -34 -200 -38 -79 -5 -94 -3 -122 15 -66 41 -61 16 -140 745 l-58 539
40 33 c52 46 146 74 244 74 96 0 142 -13 186 -51 45 -40 350 -516 468 -729 10
-18 19 -31 21 -29 2 2 -5 56 -15 119 -11 63 -35 254 -54 424 -35 314 -35 324
0 326 6 1 37 7 70 15 74 16 148 18 197 5z m1384 -101 c178 -25 327 -97 385
-186 27 -43 30 -55 27 -110 -4 -69 -20 -97 -80 -146 l-35 -28 -75 54 c-90 64
-170 90 -278 90 -127 1 -228 -61 -286 -174 -58 -116 -80 -291 -49 -395 58
-196 282 -297 520 -235 39 11 74 17 79 14 19 -12 46 -91 46 -136 0 -93 -52
-159 -152 -193 -68 -23 -221 -23 -333 1 -376 80 -585 321 -585 674 1 455 275
769 682 780 31 0 92 -4 134 -10z m-3381 -395 c257 -61 474 -316 535 -631 20
-100 9 -273 -23 -355 -72 -187 -231 -337 -444 -420 -424 -165 -803 38 -958
512 -24 74 -28 102 -29 210 -1 102 3 138 21 195 69 220 254 390 516 475 123
40 253 45 382 14z m4922 -171 l358 -170 -1 -52 c-2 -61 -45 -155 -86 -184 -50
-37 -87 -27 -327 87 -124 58 -228 106 -232 106 -8 0 -89 -165 -89 -180 0 -4
104 -56 231 -116 l231 -109 -6 -53 c-8 -69 -40 -134 -84 -173 -30 -27 -41 -31
-76 -26 -23 2 -128 46 -234 96 -106 50 -195 91 -198 91 -10 0 -103 -205 -96
-212 4 -4 122 -61 262 -127 l255 -120 -2 -55 c-2 -60 -35 -136 -76 -174 -14
-13 -43 -26 -64 -29 -35 -5 -74 12 -359 146 -367 174 -372 177 -410 227 -25
32 -29 46 -29 103 0 65 3 71 223 536 123 259 235 483 250 499 15 16 45 37 67
48 74 35 101 26 492 -159z m1024 -667 c134 -29 270 -116 410 -264 120 -125
163 -224 138 -314 -15 -57 -72 -111 -132 -127 -76 -19 -79 -17 -121 65 -44 86
-143 194 -218 238 -92 54 -177 27 -165 -52 3 -18 40 -88 81 -155 42 -68 89
-152 105 -188 100 -220 76 -387 -73 -527 -103 -96 -216 -127 -355 -98 -254 53
-574 351 -598 558 -15 123 88 227 215 216 35 -3 37 -6 58 -65 36 -101 75 -163
142 -231 108 -109 212 -139 262 -75 36 46 26 75 -89 271 -91 154 -118 214
-137 302 -25 123 5 224 98 326 59 64 112 98 188 118 70 19 109 19 191 2z
m-7837 -255 c17 -11 166 -182 331 -380 165 -198 303 -360 306 -360 3 -1 95 73
203 164 143 119 201 162 214 158 68 -25 145 -102 163 -164 24 -77 13 -89 -286
-338 -316 -263 -342 -277 -440 -232 -54 24 -67 39 -484 538 l-361 432 56 60
c128 139 214 174 298 122z m8900 -703 c19 -18 161 -213 316 -432 232 -329 280
-403 275 -423 -9 -35 -80 -109 -129 -133 -98 -47 -139 -24 -256 144 l-73 105
-46 -33 c-68 -49 -794 -561 -808 -569 -17 -11 -130 126 -165 201 -36 75 -33
114 13 166 16 19 188 146 381 283 194 136 361 255 372 264 19 16 17 20 -78
154 -111 157 -110 151 -31 230 51 51 99 74 153 75 34 0 49 -6 76 -32z m-6200
-120 c51 -208 130 -360 254 -491 158 -166 342 -272 672 -389 71 -25 429 -128
445 -128 7 0 32 31 57 68 67 101 239 313 332 410 248 259 591 457 925 533 129
30 378 37 511 15 356 -60 648 -269 789 -567 54 -113 72 -186 72 -299 1 -115
-12 -170 -61 -275 -128 -267 -454 -473 -905 -570 -210 -45 -352 -58 -625 -59
-259 -1 -348 7 -573 45 -65 12 -120 19 -122 17 -11 -12 -60 -195 -85 -317 -55
-279 -64 -390 -65 -806 0 -209 4 -415 8 -458 8 -75 10 -78 30 -72 12 4 242 9
511 11 l490 4 32 90 c242 678 776 1170 1524 1404 250 78 694 147 707 109 3 -7
-45 -37 -119 -74 -814 -408 -1319 -904 -1527 -1501 l-30 -87 32 -6 c18 -3 87
-14 153 -25 519 -86 981 -258 1322 -493 260 -179 447 -436 524 -717 20 -73 23
-109 23 -250 0 -189 -17 -272 -84 -416 -60 -127 -75 -124 -58 10 25 210 -41
474 -164 653 -202 293 -647 490 -1299 572 -203 26 -519 47 -529 35 -12 -12 4
-261 24 -399 43 -291 156 -611 306 -872 134 -233 255 -390 448 -583 193 -192
407 -352 629 -470 34 -18 61 -38 59 -44 -3 -7 -36 -10 -93 -9 -425 10 -887
218 -1247 563 -205 196 -359 404 -481 650 -157 317 -234 611 -256 986 -6 98
-13 180 -15 182 -9 9 -830 -39 -839 -49 -2 -2 1 -60 7 -129 15 -193 14 -909
-1 -1075 -28 -286 -83 -580 -147 -782 -19 -59 -32 -109 -30 -111 2 -2 48 -24
102 -48 538 -242 1029 -689 1204 -1093 63 -147 81 -227 86 -392 5 -125 2 -157
-16 -230 -27 -110 -105 -271 -127 -262 -12 4 -15 15 -10 42 17 108 17 200 2
289 -70 405 -408 750 -1057 1080 -125 64 -359 162 -383 162 -6 0 -41 -47 -78
-104 -133 -206 -346 -444 -495 -553 -201 -148 -497 -261 -813 -310 -167 -25
-442 -23 -570 4 -458 99 -694 411 -626 825 31 188 98 327 219 455 173 182 432
292 807 345 123 17 569 17 715 0 128 -15 380 -51 411 -58 26 -7 40 25 83 188
99 373 135 790 112 1310 -6 156 -14 309 -18 341 l-6 59 -56 -6 c-124 -13 -440
-26 -683 -29 l-257 -2 -42 -105 c-153 -385 -385 -728 -697 -1032 -416 -405
-907 -643 -1369 -665 -102 -5 -123 -4 -123 8 0 8 52 41 116 73 239 123 450
280 670 500 331 332 599 730 773 1150 45 107 44 116 -13 116 -58 0 -364 52
-516 87 -442 101 -789 257 -1056 474 -172 140 -289 311 -350 516 -24 76 -27
107 -28 228 0 106 4 156 17 205 36 131 143 310 184 310 17 0 16 -5 -11 -105
-22 -79 -22 -244 0 -333 74 -304 329 -510 777 -627 279 -72 572 -107 932 -109
l250 -1 -2 150 c-4 391 -170 842 -474 1295 -180 266 -364 485 -639 754 -100
98 -168 172 -163 177 16 16 263 -76 434 -162 273 -136 482 -290 719 -528 222
-223 384 -448 515 -716 138 -282 215 -580 215 -836 0 -52 4 -100 9 -108 8 -12
47 -12 273 3 303 20 515 40 523 48 4 3 0 73 -7 154 -18 214 -15 727 6 944 28
285 84 576 146 754 11 33 20 61 20 62 0 2 -24 16 -52 30 -227 115 -507 289
-653 407 -106 86 -247 234 -313 330 -72 104 -135 241 -168 362 -21 82 -27 129
-31 262 -5 158 -3 193 15 193 5 0 21 -51 36 -112z m-3427 -164 c175 -54 601
-197 868 -292 l190 -67 3 -36 c7 -79 -86 -237 -161 -272 -51 -25 -86 -21 -203
19 -58 20 -106 35 -108 33 -2 -2 -53 -77 -115 -166 -70 -102 -109 -168 -105
-175 4 -7 45 -56 91 -109 46 -53 83 -105 83 -116 0 -55 -109 -206 -171 -238
-39 -21 -98 -19 -135 4 -51 31 -279 319 -570 721 -172 236 -204 286 -204 314
0 37 42 147 81 213 43 71 131 163 184 191 59 31 109 27 272 -24z m10288 -1200
c160 -41 331 -182 412 -339 123 -239 137 -496 38 -693 -94 -184 -257 -308
-499 -377 -358 -102 -676 42 -830 377 -120 258 -107 526 35 727 140 200 444
341 704 325 44 -3 107 -12 140 -20z m-10970 -153 c93 -41 160 -132 172 -230
l5 -47 54 53 c30 30 78 65 109 79 116 53 288 16 397 -85 120 -110 146 -301 79
-563 -75 -288 -202 -509 -310 -538 -52 -14 -4 -27 -651 185 -423 138 -478 159
-504 187 l-28 31 4 111 c3 66 14 145 27 196 91 354 205 550 365 626 45 22 62
25 141 21 66 -2 103 -9 140 -26z m11738 -2777 c28 -86 33 -234 13 -326 -21
-93 -77 -205 -150 -301 -97 -127 -118 -239 -75 -403 43 -167 36 -350 -22 -507
-33 -91 -95 -206 -114 -214 -14 -5 -195 85 -195 97 0 4 18 45 39 91 61 131 75
194 75 349 1 110 -3 152 -23 227 -44 173 -19 295 89 428 52 64 115 192 136
275 15 59 16 198 2 284 -3 17 10 22 92 41 52 13 99 22 105 21 5 -2 18 -29 28
-62z m-12158 1 c19 -4 20 -10 17 -107 -7 -182 44 -317 179 -479 39 -48 78
-107 91 -139 28 -70 29 -177 4 -320 -30 -177 -5 -338 81 -510 27 -52 49 -98
51 -101 1 -4 -40 -31 -93 -62 l-96 -56 -34 47 c-44 62 -97 170 -125 257 -32
99 -39 298 -15 419 34 169 8 272 -99 401 -121 146 -173 264 -183 415 -5 81 7
190 28 246 7 21 9 21 91 8 46 -8 92 -16 103 -19z m11703 -133 c5 -153 -42
-288 -148 -427 -77 -102 -103 -164 -108 -260 -3 -62 1 -97 18 -155 31 -106 38
-280 16 -388 -18 -91 -54 -192 -68 -192 -4 0 -54 23 -109 51 -74 36 -99 54
-95 65 49 128 57 359 17 507 -18 69 -23 105 -19 165 6 95 26 142 106 250 99
133 151 266 152 384 l0 46 103 25 c56 14 109 24 117 23 12 -1 16 -20 18 -94z
m-11323 70 l100 -17 8 -40 c35 -174 79 -269 179 -388 74 -89 104 -145 119
-228 10 -55 8 -78 -10 -172 -34 -173 -24 -339 27 -474 l20 -52 -105 -60 -104
-61 -25 56 c-68 154 -89 326 -58 484 25 125 23 229 -5 300 -12 32 -55 97 -100
153 -79 99 -132 196 -157 290 -18 68 -19 227 -1 226 6 0 57 -8 112 -17z m1613
-2754 c153 -105 209 -203 167 -291 -8 -18 -162 -183 -341 -367 l-326 -335 181
-176 c99 -97 181 -184 181 -193 0 -54 -94 -166 -156 -186 -64 -21 -86 -5 -349
252 -136 133 -253 255 -262 272 -24 47 -21 127 8 174 19 31 835 880 847 882 2
0 24 -14 50 -32z m8045 -141 c45 -34 77 -100 77 -159 0 -45 -1 -47 -37 -59
-128 -41 -277 -151 -330 -243 -17 -29 -16 -77 3 -104 25 -36 73 -29 207 33
273 128 427 150 565 84 65 -32 145 -111 182 -181 30 -55 35 -74 38 -154 7
-158 -49 -275 -207 -435 -256 -258 -505 -314 -598 -135 -18 34 -20 143 -4 159
6 6 39 17 74 24 171 35 357 187 357 292 0 23 -9 42 -30 63 -27 26 -35 29 -68
23 -20 -4 -68 -20 -107 -37 -299 -129 -346 -143 -465 -136 -93 6 -158 36 -227
107 -134 136 -154 293 -62 481 70 142 266 323 419 387 76 33 163 28 213 -10z
m-1323 -544 c19 -18 33 -41 36 -63 l6 -36 -196 -116 c-129 -76 -196 -111 -196
-102 0 9 37 83 82 166 90 166 102 177 190 178 38 0 54 -5 78 -27z m-5801 -154
c20 -6 182 -99 361 -208 322 -195 325 -197 328 -232 4 -49 -52 -156 -98 -187
-57 -39 -85 -29 -324 116 -212 128 -215 130 -229 108 -8 -11 -32 -51 -55 -88
l-41 -66 214 -129 c213 -127 214 -128 215 -163 0 -77 -78 -191 -140 -204 -42
-8 -65 3 -265 124 -93 56 -173 104 -176 106 -7 4 -119 -178 -119 -193 0 -4
108 -73 240 -153 l240 -145 0 -36 c0 -48 -54 -153 -93 -181 -67 -48 -80 -42
-427 168 -369 224 -375 229 -375 337 l0 72 260 430 c143 236 273 445 290 464
32 37 96 70 134 71 13 0 40 -5 60 -11z m6131 -50 c54 -53 94 -138 86 -183 -9
-50 -55 -84 -261 -200 -104 -58 -196 -110 -204 -115 -11 -7 -5 -26 33 -95 26
-47 51 -86 56 -86 5 0 106 54 224 121 l216 121 32 -27 c73 -61 118 -158 97
-212 -17 -46 -34 -58 -231 -169 -104 -59 -187 -110 -186 -114 2 -3 27 -49 56
-102 l54 -96 151 86 c84 47 195 109 247 139 52 29 99 53 104 53 22 0 79 -55
106 -103 22 -38 30 -65 30 -101 0 -43 -4 -53 -34 -80 -46 -43 -626 -366 -676
-377 -57 -13 -114 4 -161 49 -26 25 -112 167 -270 447 -263 466 -279 497 -279
545 0 44 29 108 64 139 24 22 682 400 697 401 4 0 26 -18 49 -41z m-1172 -595
c12 -8 32 -34 43 -57 11 -23 87 -296 168 -607 l149 -565 -27 -28 c-60 -65
-200 -111 -322 -105 -65 3 -81 7 -113 31 -42 33 -396 438 -500 574 -39 50 -72
90 -74 88 -2 -2 12 -56 32 -122 59 -198 186 -685 181 -693 -10 -16 -179 -71
-234 -76 -48 -5 -61 -3 -91 18 -19 13 -43 39 -52 58 -9 19 -83 286 -164 593
l-146 559 29 36 c64 80 258 141 359 114 25 -7 57 -20 71 -29 32 -21 414 -459
502 -576 36 -48 67 -83 69 -78 2 6 -11 54 -28 107 -17 54 -67 233 -111 398
-75 279 -79 301 -63 313 18 13 150 59 194 67 38 7 102 -3 128 -20z m-3493 -25
c102 -12 274 -66 350 -109 78 -45 140 -104 169 -162 29 -57 31 -75 16 -130
-14 -47 -52 -94 -98 -117 l-36 -19 -65 55 c-89 75 -128 99 -218 129 -184 62
-359 15 -453 -120 -75 -110 -108 -277 -77 -387 23 -79 70 -142 137 -187 65
-44 165 -75 225 -70 l39 3 28 90 c15 50 26 95 24 101 -2 5 -24 16 -47 23 -24
7 -75 22 -113 33 l-68 21 4 76 c7 122 56 191 135 191 37 0 415 -114 453 -137
31 -18 60 -67 60 -100 0 -32 -146 -509 -167 -545 -11 -20 -38 -43 -68 -58 -47
-23 -59 -25 -195 -24 -123 1 -160 5 -242 27 -264 70 -459 209 -547 389 -53
109 -71 182 -71 294 0 108 32 249 79 348 101 210 294 351 526 385 85 12 118
12 220 0z m1645 -265 c58 -17 111 -51 135 -87 25 -39 129 -402 270 -942 l75
-290 -25 -22 c-37 -33 -98 -45 -201 -41 -137 5 -167 33 -209 200 -13 50 -30
95 -37 99 -7 5 -99 9 -204 9 l-190 0 -38 -139 -38 -139 -59 -12 c-119 -25
-255 7 -292 69 -37 62 -22 131 118 541 81 237 254 701 267 718 11 13 92 39
166 52 64 12 196 4 262 -16z"/>
<path d="M6334 14340 c-127 -41 -208 -151 -207 -280 1 -175 127 -408 258 -475
118 -60 264 -31 355 72 94 107 93 250 -5 449 -100 205 -240 286 -401 234z"/>
<path d="M10340 12139 c-171 -28 -405 -143 -583 -286 -82 -66 -244 -264 -225
-274 31 -17 278 -31 441 -26 262 8 447 48 634 137 222 105 296 240 195 352
-81 90 -266 129 -462 97z"/>
<path d="M7402 6255 c-295 -38 -505 -123 -568 -231 -67 -114 -13 -223 127
-253 111 -24 315 -8 504 40 313 80 526 211 626 386 19 33 21 45 12 54 -19 19
-557 22 -701 4z"/>
<path d="M3900 12251 c0 -9 214 -297 260 -351 18 -20 23 -22 30 -10 5 8 40 60
79 115 48 68 67 102 58 106 -13 8 -415 149 -422 149 -3 0 -5 -4 -5 -9z"/>
<path d="M14121 11010 c-145 -31 -273 -93 -342 -167 -62 -66 -83 -124 -77
-210 8 -114 69 -207 167 -256 136 -67 441 17 566 156 47 51 75 119 75 178 0
61 -36 161 -75 206 -67 79 -197 117 -314 93z"/>
<path d="M3154 10860 c-38 -15 -84 -83 -109 -161 -43 -137 -49 -127 90 -171
66 -21 122 -38 125 -38 13 0 70 200 70 247 0 95 -90 158 -176 123z"/>
<path d="M3662 10705 c-33 -28 -63 -90 -103 -218 -19 -62 -24 -90 -16 -93 7
-2 65 -22 130 -43 l117 -40 16 25 c29 44 74 188 74 237 0 67 -24 114 -71 137
-54 28 -110 26 -147 -5z"/>
<path d="M8775 3493 c-71 -206 -125 -368 -125 -379 0 -11 28 -14 135 -14 74 0
135 3 135 8 0 4 -25 101 -55 217 -30 115 -55 210 -55 212 0 2 -4 3 -9 3 -5 0
-17 -21 -26 -47z"/>
</g>
</svg>
